# Blender 4.5.3 LTS
# www.blender.org
mtllib Arrow.mtl
o Cube
v 0.000000 0.025000 -1.000000
v -0.700000 0.000000 -0.300000
v -0.400000 0.000000 -0.300000
v -0.400000 0.000000 1.000000
v 0.000000 0.000000 1.000000
v 0.000000 0.075000 -1.000000
v -0.700000 0.100000 -0.300000
v -0.400000 0.100000 -0.300000
v -0.400000 0.100000 1.000000
v 0.000000 0.100000 1.000000
v -0.400000 0.000000 1.100000
v -0.400000 0.100000 1.100000
v 0.000000 0.000000 1.100000
v 0.000000 0.100000 1.100000
v -0.400000 0.000000 1.200000
v -0.400000 0.100000 1.200000
v 0.000000 0.000000 1.200000
v 0.000000 0.100000 1.200000
v 0.700000 0.000000 -0.300000
v 0.400000 0.000000 -0.300000
v 0.400000 0.000000 1.000000
v 0.700000 0.100000 -0.300000
v 0.400000 0.100000 -0.300000
v 0.400000 0.100000 1.000000
v 0.400000 0.000000 1.100000
v 0.400000 0.100000 1.100000
v 0.400000 0.000000 1.200000
v 0.400000 0.100000 1.200000
vn 0.0246 -0.9997 -0.0076
vn -0.0000 -0.9994 -0.0357
vn 0.0246 0.9997 -0.0076
vn -0.0000 0.9994 -0.0357
vn -1.0000 -0.0000 -0.0000
vn -0.7071 -0.0000 -0.7071
vn -0.0000 -0.0000 1.0000
vn -0.0000 -0.0000 -1.0000
vn -0.0000 1.0000 -0.0000
vn -0.0000 -1.0000 -0.0000
vn 1.0000 -0.0000 -0.0000
vn -0.0246 -0.9997 -0.0076
vn -0.0246 0.9997 -0.0076
vn 0.7071 -0.0000 -0.7071
vt 0.000000 0.000000
s 0
usemtl Material
f 3/1/1 1/1/1 5/1/1 4/1/1
f 2/1/2 1/1/2 3/1/2
f 8/1/3 9/1/3 10/1/3 6/1/3
f 7/1/4 8/1/4 6/1/4
f 4/1/5 9/1/5 8/1/5 3/1/5
f 2/1/6 7/1/6 6/1/6 1/1/6
f 5/1/7 10/1/7 9/1/7 4/1/7
f 3/1/7 8/1/7 7/1/7 2/1/7
f 12/1/8 14/1/8 13/1/8 11/1/8
f 16/1/7 15/1/7 17/1/7 18/1/7
f 14/1/9 12/1/9 16/1/9 18/1/9
f 11/1/10 13/1/10 17/1/10 15/1/10
f 13/1/11 14/1/11 18/1/11 17/1/11
f 12/1/5 11/1/5 15/1/5 16/1/5
f 20/1/12 21/1/12 5/1/12 1/1/12
f 19/1/2 20/1/2 1/1/2
f 23/1/13 6/1/13 10/1/13 24/1/13
f 22/1/4 6/1/4 23/1/4
f 21/1/11 20/1/11 23/1/11 24/1/11
f 19/1/14 1/1/14 6/1/14 22/1/14
f 5/1/7 21/1/7 24/1/7 10/1/7
f 20/1/7 19/1/7 22/1/7 23/1/7
f 26/1/8 25/1/8 13/1/8 14/1/8
f 28/1/7 18/1/7 17/1/7 27/1/7
f 14/1/9 18/1/9 28/1/9 26/1/9
f 25/1/10 27/1/10 17/1/10 13/1/10
f 26/1/11 28/1/11 27/1/11 25/1/11
