# Blender 4.5.3 LTS
# www.blender.org
mtllib Dummy.mtl
o Cube
v 0.000000 -0.018011 -1.000000
v -1.009831 0.085923 0.999422
v -0.105715 -0.008183 0.699664
v 0.000000 -0.200000 0.700000
v 0.000000 -0.250000 0.700000
v -0.122897 -0.032787 0.698653
v -1.028612 0.059030 0.998317
v 0.000000 -0.031989 -1.000000
v 1.009831 0.085923 0.999422
v 0.105715 -0.008183 0.699664
v 0.122897 -0.032787 0.698653
v 1.028612 0.059030 0.998317
vn -0.8746 -0.4821 -0.0516
vn -0.1038 -0.9946 -0.0007
vn 0.8684 0.4918 0.0631
vn 0.1035 0.9946 0.0080
vn 0.0224 0.0084 -0.9997
vn -0.2836 0.2362 -0.9294
vn 0.8141 -0.3858 0.4339
vn 0.8746 -0.4821 -0.0516
vn 0.1038 -0.9946 -0.0007
vn -0.8684 0.4918 0.0631
vn -0.1035 0.9946 0.0080
vn -0.0224 0.0084 -0.9997
vn 0.2836 0.2362 -0.9294
vn -0.8141 -0.3858 0.4339
vt 0.000000 0.000000
s 0
usemtl Material
f 3/1/1 1/1/1 4/1/1
f 2/1/2 1/1/2 3/1/2
f 6/1/3 5/1/3 8/1/3
f 7/1/4 6/1/4 8/1/4
f 3/1/5 4/1/5 5/1/5 6/1/5
f 2/1/6 3/1/6 6/1/6 7/1/6
f 1/1/7 2/1/7 7/1/7 8/1/7
f 10/1/8 4/1/8 1/1/8
f 9/1/9 10/1/9 1/1/9
f 11/1/10 8/1/10 5/1/10
f 12/1/11 8/1/11 11/1/11
f 10/1/12 11/1/12 5/1/12 4/1/12
f 9/1/13 12/1/13 11/1/13 10/1/13
f 1/1/14 8/1/14 12/1/14 9/1/14
